<svg xmlns="http://www.w3.org/2000/svg" height="101.86223694098872" width="406" style="width: 406px; height: 101.862px; position: absolute; top: 50%; left: 50%; transform: translate(-50%, -50%) scale(1); z-index: 0; cursor: pointer;"><defs id="SvgjsDefs1001"><linearGradient id="SvgjsLinearGradient1015"><stop id="SvgjsStop1016" stop-color="#006838" offset="0"></stop><stop id="SvgjsStop1017" stop-color="#96cf24" offset="1"></stop></linearGradient><linearGradient id="SvgjsLinearGradient1018"><stop id="SvgjsStop1019" stop-color="#006838" offset="0"></stop><stop id="SvgjsStop1020" stop-color="#96cf24" offset="1"></stop></linearGradient><linearGradient id="SvgjsLinearGradient1021"><stop id="SvgjsStop1022" stop-color="#006838" offset="0"></stop><stop id="SvgjsStop1023" stop-color="#96cf24" offset="1"></stop></linearGradient><linearGradient id="SvgjsLinearGradient1024"><stop id="SvgjsStop1025" stop-color="#006838" offset="0"></stop><stop id="SvgjsStop1026" stop-color="#96cf24" offset="1"></stop></linearGradient></defs><g id="SvgjsG1007" featurekey="symbolFeature-0" transform="matrix(1.7914568386839649,0,0,1.7914568386839649,0.002737710588396679,0)" fill="url(#SvgjsLinearGradient1015)"><path xmlns="http://www.w3.org/2000/svg" d="M42.98,26.59c-1.34-2.12-3.32-3.75-5.61-4.72c2.29-0.97,4.28-2.61,5.61-4.72c0.06-0.1,0.13-0.22,0.19-0.35  c0.88-1.8,0.72-4.07-0.44-5.92c-1.12-1.79-2.93-2.86-4.85-2.86h-2.16V5.85c0-3.5-3.26-5.85-6.3-5.85c-0.88,0-1.71,0.19-2.48,0.56  c-0.13,0.06-0.25,0.13-0.36,0.2c-2.11,1.33-3.75,3.32-4.72,5.61c-0.97-2.29-2.6-4.27-4.72-5.61c-0.1-0.06-0.22-0.13-0.36-0.2  C16.03,0.19,15.19,0,14.31,0c-3.04,0-6.3,2.35-6.3,5.85v2.17H5.85c-1.92,0-3.74,1.07-4.85,2.86C-0.15,12.73-0.32,15,0.56,16.8  c0.06,0.13,0.13,0.25,0.19,0.35c1.34,2.12,3.32,3.75,5.61,4.72c-2.29,0.97-4.28,2.61-5.61,4.72c-0.06,0.1-0.13,0.22-0.19,0.35  c-0.88,1.8-0.72,4.07,0.44,5.92c1.12,1.79,2.93,2.86,4.85,2.86h2.16v2.16c0,3.5,3.26,5.85,6.3,5.85c0.88,0,1.71-0.19,2.48-0.56  c0.13-0.06,0.25-0.13,0.36-0.2c1.44-0.91,2.65-2.12,3.59-3.53v10.42c0,2.76-2.24,5-5,5s-5-2.24-5-5c0-0.55-0.45-1-1-1s-1,0.45-1,1  c0,3.86,3.14,7,7,7s7-3.14,7-7V39.06c0.97,1.57,2.27,2.93,3.85,3.92c0.1,0.06,0.22,0.13,0.36,0.2c0.77,0.37,1.6,0.56,2.48,0.56  c3.04,0,6.3-2.35,6.3-5.85v-2.16h2.16c1.92,0,3.74-1.07,4.85-2.86c1.15-1.85,1.32-4.12,0.44-5.92C43.1,26.8,43.04,26.69,42.98,26.59  z M41.03,31.8c-0.75,1.2-1.93,1.92-3.16,1.92h-3.16c-0.55,0-1,0.45-1,1v3.16c0,2.27-2.26,3.85-4.3,3.85c-0.57,0-1.11-0.12-1.61-0.36  c-0.06-0.03-0.11-0.06-0.16-0.09c-2.95-1.86-4.79-5.25-4.79-8.82c0-0.55-0.45-1-1-1s-1,0.45-1,1c0,0.44-0.03,0.87-0.08,1.3  c-0.02,0.08-0.05,0.15-0.05,0.23v0.03c-0.45,2.97-2.14,5.67-4.66,7.26c-0.05,0.03-0.1,0.06-0.16,0.09c-0.49,0.24-1.03,0.36-1.6,0.36  c-2.03,0-4.3-1.58-4.3-3.85v-3.16c0-0.55-0.45-1-1-1H5.85c-1.23,0-2.41-0.72-3.16-1.92C1.9,30.53,1.78,29,2.36,27.81  c0.03-0.06,0.06-0.11,0.09-0.16c1.87-2.96,5.25-4.79,8.83-4.79c0.55,0,1-0.45,1-1s-0.45-1-1-1c-3.58,0-6.96-1.83-8.83-4.79  c-0.03-0.04-0.06-0.1-0.09-0.16C1.78,14.73,1.9,13.2,2.7,11.93c0.75-1.2,1.93-1.92,3.16-1.92h3.16c0.55,0,1-0.45,1-1V5.85  c0-2.27,2.26-3.85,4.3-3.85c0.57,0,1.11,0.12,1.61,0.36c0.06,0.03,0.11,0.06,0.16,0.09c2.95,1.86,4.79,5.24,4.79,8.82  c0,0.55,0.45,1,1,1s1-0.45,1-1c0-3.58,1.83-6.96,4.79-8.82c0.05-0.03,0.1-0.06,0.16-0.09C28.3,2.12,28.84,2,29.42,2  c2.03,0,4.3,1.58,4.3,3.85v3.17c0,0.55,0.45,1,1,1h3.16c1.23,0,2.41,0.72,3.16,1.92c0.79,1.27,0.92,2.8,0.34,3.99  c-0.03,0.06-0.06,0.11-0.09,0.16c-1.87,2.95-5.25,4.79-8.83,4.79c-0.55,0-1,0.45-1,1s0.45,1,1,1c3.58,0,6.96,1.83,8.83,4.79  c0.03,0.04,0.06,0.1,0.09,0.16C41.95,29,41.82,30.53,41.03,31.8z"></path></g><g id="SvgjsG1008" featurekey="textGroupContainer" transform="matrix(1,0,0,1,405,5)" fill="url(#SvgjsLinearGradient1018)"><rect xmlns="http://www.w3.org/2000/svg" y="0" height="1" width="1" opacity="0"></rect><rect xmlns="http://www.w3.org/2000/svg" y="0" x="-307" width="5" height="92"></rect></g><g id="SvgjsG1009" featurekey="nameFeature-0" transform="matrix(1.7975238209485698,0,0,1.7975238209485698,114.92148673598224,17.214857074308583)" fill="url(#SvgjsLinearGradient1021)"><path d="M9.86 6 l0 9.28 c0 3.68 -2.94 4.96 -4.94 4.96 c-2.14 0 -3.46 -0.84 -4.32 -1.94 l1.74 -2.14 c0.52 0.58 1.36 1.26 2.42 1.26 c0.76 0 2.18 -0.32 2.18 -2.54 l0 -8.88 l2.92 0 z M23.44 20 l-1.06 -2.5 l-6.76 0 l-1.06 2.5 l-3.1 0 l6.22 -14 l2.64 0 l6.24 14 l-3.12 0 z M16.64 15.120000000000001 l4.72 0 l-2.36 -5.54 z M39.18 20 l-3.1 0 l-2.98 -4.66 l-0.04 0 l-1.98 0 l0 4.66 l-2.92 0 l0 -14 l4.9 0 c3.14 0 5.18 1.9 5.18 4.76 c0 1.9 -0.92 3.32 -2.48 4.04 z M31.080000000000002 8.68 l0 4.14 l1.8 0 c1.44 0 2.44 -0.56 2.44 -2.06 c0 -1.48 -1 -2.08 -2.44 -2.08 l-1.8 0 z M45.980000000000004 6 c3.98 0 7.1 3.12 7.1 6.92 c0 3.96 -3.12 7.08 -7.1 7.08 l-5 0 l0 -14 l5 0 z M45.96 17.240000000000002 c2.68 0 4.12 -1.94 4.12 -4.32 c0 -2.22 -1.44 -4.16 -4.12 -4.16 l-2.06 0 l0 8.48 l2.06 0 z M58 6 l0 14 l-2.92 0 l0 -14 l2.92 0 z M69.56 6 l2.92 0 l0 14 l-2.22 0 l-6.94 -8.68 l0 8.68 l-2.92 0 l0 -14 l2.26 0 l6.9 8.7 l0 -8.7 z M77.80000000000001 17.32 l5.92 0 l0 2.68 l-6.32 0 l-2.52 0 l0 -14 l2.92 0 l5.74 0 l0 2.68 l-5.74 0 l0 2.96 l4.34 0 l0 2.64 l-4.34 0 l0 3.04 z M96.84 20 l-3.1 0 l-2.98 -4.66 l-0.04 0 l-1.98 0 l0 4.66 l-2.92 0 l0 -14 l4.9 0 c3.14 0 5.18 1.9 5.18 4.76 c0 1.9 -0.92 3.32 -2.48 4.04 z M88.74000000000001 8.68 l0 4.14 l1.8 0 c1.44 0 2.44 -0.56 2.44 -2.06 c0 -1.48 -1 -2.08 -2.44 -2.08 l-1.8 0 z M101.36 6 l0 14 l-2.92 0 l0 -14 l2.92 0 z M114.94 20 l-1.06 -2.5 l-6.76 0 l-1.06 2.5 l-3.1 0 l6.22 -14 l2.64 0 l6.24 14 l-3.12 0 z M108.14 15.120000000000001 l4.72 0 l-2.36 -5.54 z M134.32 6 l0 9.28 c0 3.68 -2.94 4.96 -4.94 4.96 c-2.14 0 -3.46 -0.84 -4.32 -1.94 l1.74 -2.14 c0.52 0.58 1.36 1.26 2.42 1.26 c0.76 0 2.18 -0.32 2.18 -2.54 l0 -8.88 l2.92 0 z M151.72 6 l0 14 l-3 0 l0 -7.44 l-3.26 7.44 l-2.52 0 l-3.22 -7.4 l0 7.4 l-3 0 l0 -14 l2.88 0 l4.62 10.1 l4.62 -10.1 l2.88 0 z"></path></g><g id="SvgjsG1010" featurekey="sloganFeature-0" transform="matrix(0.6159329038075338,0,0,0.6159329038075338,144.6304403164554,61.142072877067434)" fill="url(#SvgjsLinearGradient1024)"><path d="M13.3 7.279999999999999 l-5.26 0 l0 12.72 l-2.12 0 l0 -12.72 l-5.32 0 l0 -2.2 l12.7 0 l0 2.2 z M22.6 20.34 q-2.1 0 -3.61 -0.73 t-2.3 -2.11 t-0.79 -3.3 l0 -9.12 l2.16 0 l0 9.12 q0 1.92 1.18 2.94 t3.36 1.02 t3.36 -1.02 t1.18 -2.94 l0 -9.12 l2.16 0 l0 9.12 q0 1.92 -0.79 3.3 t-2.3 2.11 t-3.61 0.73 z M48.02000000000001 5.08 l0 9.02 q0 2.16 -0.94 3.66 q-0.82 1.3 -2.24 1.98 q-1.24 0.6 -2.64 0.6 q-1.34 0 -2.72 -0.46 q-1.44 -0.5 -2.36 -1.3 l1.1 -1.92 l0.24 0.24 q0.32 0.28 0.74 0.52 q0.56 0.34 1.24 0.52 q0.84 0.24 1.78 0.24 q1.02 0 1.78 -0.44 q0.64 -0.36 1.08 -1.02 q0.36 -0.52 0.56 -1.22 q0.14 -0.5 0.2 -1.02 l0.02 -0.44 l0 -6.76 l-3.18 0 l-0.96 -2.2 l6.3 0 z M57.080000000000005 6.66 l-0.82 -1.84 l2.4 0 l7.18 15.18 l-2.44 0 l-0.98 -2.18 l-4.54 0 q-1.28 0 -2.3 0.24 q-0.9 0.22 -1.5 0.58 q-0.54 0.32 -0.72 0.66 l-0.38 0.7 l-2.36 0 z M58.68000000000001 15.620000000000001 l2.76 0 l-3.26 -6.3 l-3.3 7.14 q0.44 -0.38 1.34 -0.6 q1.02 -0.24 2.46 -0.24 z M70.82 7.26 l0 4.96 q0.62 -0.36 1.38 -0.48 q0.56 -0.1 1.44 -0.1 l2.84 0 q1.18 0 1.84 -0.54 q0.7 -0.58 0.7 -1.74 q0 -1.1 -0.74 -1.64 q-0.64 -0.46 -1.8 -0.46 l-5.66 0 z M77.2 17.64 l-1.82 -3.82 l-1.74 0 q-0.82 0 -1.44 0.1 q-0.76 0.14 -1.38 0.48 l0 5.6 l-2.18 0 l0 -14.92 l7.84 0 q1.38 0 2.44 0.52 t1.64 1.48 q0.62 1.02 0.62 2.4 q0 1.68 -0.9 2.76 t-2.54 1.5 l1.16 2.38 q0.5 0.74 0.78 1.04 q0.34 0.38 0.65 0.51 t0.81 0.13 l0.22 0 l0.48 -0.02 l0 2.22 q-1.16 0 -1.72 -0.08 q-0.94 -0.16 -1.6 -0.62 q-0.78 -0.56 -1.32 -1.66 z M88.41999999999999 7.279999999999999 l0 10.54 l3.38 0 q1.4 0 2.52 -0.72 q1.06 -0.7 1.66 -1.88 t0.6 -2.58 q0 -1.46 -0.57 -2.68 t-1.63 -1.94 q-1.14 -0.74 -2.62 -0.74 l-3.34 0 z M85.1 7.279999999999999 l-0.96 -2.2 l7.6 0 q1.98 0 3.62 1.02 q1.58 0.98 2.5 2.68 t0.92 3.7 q0 1.5 -0.59 2.97 t-1.63 2.57 q-1 1.08 -2.14 1.54 q-1.1 0.44 -2.62 0.44 l-5.52 0 l0 -12.72 l-1.18 0 z M104.32 20 l-2.14 0 l0 -14.92 l2.14 0 l0 14.92 z M109.16 7.18 l-1.74 -2.1 l2.82 0 l9.58 11.4 l0 -11.4 l2.2 0 l0 14.92 l-2.16 0 l-8.56 -10.26 l0 10.26 l-2.14 0 l0 -12.82 z M128.6 14.02 l0 3.8 l9.2 0 l0 2.18 l-11.38 0 l0 -14.92 l10.5 0 l0 2.2 l-8.32 0 l0 4.52 q0.62 -0.36 1.38 -0.48 q0.56 -0.1 1.44 -0.1 l3.26 0 l0 2.22 l-3.26 0 q-0.82 0 -1.44 0.1 q-0.76 0.14 -1.38 0.48 z M143.48 7.26 l0 4.96 q0.62 -0.36 1.38 -0.48 q0.56 -0.1 1.44 -0.1 l2.84 0 q1.18 0 1.84 -0.54 q0.7 -0.58 0.7 -1.74 q0 -1.1 -0.74 -1.64 q-0.64 -0.46 -1.8 -0.46 l-5.66 0 z M149.85999999999999 17.64 l-1.82 -3.82 l-1.74 0 q-0.82 0 -1.44 0.1 q-0.76 0.14 -1.38 0.48 l0 5.6 l-2.18 0 l0 -14.92 l7.84 0 q1.38 0 2.44 0.52 t1.64 1.48 q0.62 1.02 0.62 2.4 q0 1.68 -0.9 2.76 t-2.54 1.5 l1.16 2.38 q0.5 0.74 0.78 1.04 q0.34 0.38 0.65 0.51 t0.81 0.13 l0.22 0 l0.48 -0.02 l0 2.22 q-1.16 0 -1.72 -0.08 q-0.94 -0.16 -1.6 -0.62 q-0.78 -0.56 -1.32 -1.66 z M171 12.440000000000001 q0 -1.6 -0.82 -2.9 q-0.78 -1.26 -2.13 -1.98 t-2.93 -0.72 q-1.64 0 -2.99 0.74 t-2.11 2.02 q-0.78 1.34 -0.78 2.98 q0 1.56 0.84 2.88 q0.8 1.24 2.15 1.97 t2.92 0.73 t2.92 -0.76 t2.13 -2.04 q0.8 -1.34 0.8 -2.92 z M173.16 12.559999999999999 q0 2.16 -1.12 3.98 q-1.08 1.74 -2.93 2.77 t-3.99 1.03 q-2.22 0 -4.08 -1.08 q-1.82 -1.04 -2.86 -2.86 q-1.08 -1.86 -1.08 -4.08 q0 -2.14 1.14 -3.94 q1.08 -1.72 2.93 -2.73 t3.97 -1.01 q2.18 0 4.04 1.06 q1.82 1.04 2.88 2.82 q1.1 1.86 1.1 4.04 z M184.96 7.279999999999999 l0 10.54 l3.38 0 q1.4 0 2.52 -0.72 q1.06 -0.7 1.66 -1.88 t0.6 -2.58 q0 -1.46 -0.57 -2.68 t-1.63 -1.94 q-1.14 -0.74 -2.62 -0.74 l-3.34 0 z M181.64000000000001 7.279999999999999 l-0.96 -2.2 l7.6 0 q1.98 0 3.62 1.02 q1.58 0.98 2.5 2.68 t0.92 3.7 q0 1.5 -0.59 2.97 t-1.63 2.57 q-1 1.08 -2.14 1.54 q-1.1 0.44 -2.62 0.44 l-5.52 0 l0 -12.72 l-1.18 0 z M200.9 14.02 l0 3.8 l9.2 0 l0 2.18 l-11.38 0 l0 -14.92 l10.5 0 l0 2.2 l-8.32 0 l0 4.52 q0.62 -0.36 1.38 -0.48 q0.56 -0.1 1.44 -0.1 l3.26 0 l0 2.22 l-3.26 0 q-0.82 0 -1.44 0.1 q-0.76 0.14 -1.38 0.48 z M231.79999999999998 7 l-1.4 1.64 q-0.82 -0.84 -1.96 -1.32 t-2.4 -0.48 q-1.64 0 -2.99 0.74 t-2.11 2.02 q-0.78 1.34 -0.78 2.98 q0 1.56 0.84 2.88 q0.8 1.24 2.15 1.97 t2.91 0.73 q1.44 0 2.68 -0.62 t2.06 -1.72 l1.34 1.82 q-1.14 1.28 -2.73 1.99 t-3.37 0.71 q-2.22 0 -4.08 -1.08 q-1.82 -1.04 -2.86 -2.86 q-1.08 -1.86 -1.08 -4.08 q0 -2.14 1.14 -3.94 q1.08 -1.72 2.93 -2.73 t3.97 -1.01 q1.66 0 3.16 0.64 q1.46 0.6 2.58 1.72 z M248.23999999999998 12.440000000000001 q0 -1.6 -0.82 -2.9 q-0.78 -1.26 -2.13 -1.98 t-2.93 -0.72 q-1.64 0 -2.99 0.74 t-2.11 2.02 q-0.78 1.34 -0.78 2.98 q0 1.56 0.84 2.88 q0.8 1.24 2.15 1.97 t2.92 0.73 t2.92 -0.76 t2.13 -2.04 q0.8 -1.34 0.8 -2.92 z M250.39999999999998 12.559999999999999 q0 2.16 -1.12 3.98 q-1.08 1.74 -2.93 2.77 t-3.99 1.03 q-2.22 0 -4.08 -1.08 q-1.82 -1.04 -2.86 -2.86 q-1.08 -1.86 -1.08 -4.08 q0 -2.14 1.14 -3.94 q1.08 -1.72 2.93 -2.73 t3.97 -1.01 q2.18 0 4.04 1.06 q1.82 1.04 2.88 2.82 q1.1 1.86 1.1 4.04 z M254.23999999999998 7.18 l-1.74 -2.1 l2.82 0 l9.58 11.4 l0 -11.4 l2.2 0 l0 14.92 l-2.16 0 l-8.56 -10.26 l0 10.26 l-2.14 0 l0 -12.82 z M273.68 14.02 l0 5.98 l-2.18 0 l0 -14.92 l10.5 0 l0 2.2 l-8.32 0 l0 4.52 q0.62 -0.36 1.38 -0.48 q0.56 -0.1 1.44 -0.1 l3.26 0 l0 2.22 l-3.26 0 q-0.82 0 -1.44 0.1 q-0.76 0.14 -1.38 0.48 z M287.53999999999996 20 l-2.14 0 l0 -14.92 l2.14 0 l0 14.92 z M296.6 6.66 l-0.82 -1.84 l2.4 0 l7.18 15.18 l-2.44 0 l-0.98 -2.18 l-4.54 0 q-1.28 0 -2.3 0.24 q-0.9 0.22 -1.5 0.58 q-0.54 0.32 -0.72 0.66 l-0.38 0.7 l-2.36 0 z M298.2 15.620000000000001 l2.76 0 l-3.26 -6.3 l-3.3 7.14 q0.44 -0.38 1.34 -0.6 q1.02 -0.24 2.46 -0.24 z M308.6 7.18 l-1.74 -2.1 l2.82 0 l9.58 11.4 l0 -11.4 l2.2 0 l0 14.92 l-2.16 0 l-8.56 -10.26 l0 10.26 l-2.14 0 l0 -12.82 z M336.8 20 l-12.14 0 l0 -2.2 l8.4 -10.52 l-7.94 0 l0 -2.2 l10.94 0 l0 2.12 l-8.68 10.62 l9.42 0 l0 2.18 z M344.66 6.66 l-0.82 -1.84 l2.4 0 l7.18 15.18 l-2.44 0 l-0.98 -2.18 l-4.54 0 q-1.28 0 -2.3 0.24 q-0.9 0.22 -1.5 0.58 q-0.54 0.32 -0.72 0.66 l-0.38 0.7 l-2.36 0 z M346.26 15.620000000000001 l2.76 0 l-3.26 -6.3 l-3.3 7.14 q0.44 -0.38 1.34 -0.6 q1.02 -0.24 2.46 -0.24 z"></path></g></svg>