    <svg width="269.01676165487225" height="304.9200042724609" viewBox="0 0 312.5 354.2065585392428" class="css-1j8o68f"><defs id="SvgjsDefs1731"></defs><g id="SvgjsG1732" featurekey="rootContainer" transform="matrix(6.301672250887788,0,0,6.301672250887788,-0.06297031579007886,-0.036717584046948144)" fill="#111111"><path xmlns="http://www.w3.org/2000/svg" d="M23.11 55.76L1.7 43.4a3.39 3.39 0 0 1-1.69-2.94v-24.7a3.39 3.39 0 0 1 1.69-2.94L23.11.46a3.39 3.39 0 0 1 3.39 0l21.41 12.36a3.39 3.39 0 0 1 1.69 2.94v24.73a3.39 3.39 0 0 1-1.69 2.94L26.5 55.76a3.39 3.39 0 0 1-3.39 0z"></path></g><g id="SvgjsG1733" featurekey="symbolFeature-0" transform="matrix(0.9844241717562418,0,0,0.9844241717562418,106.91349093948901,88.11169783161654)" fill="#64f028"><path xmlns="http://www.w3.org/2000/svg" d="M61.593,46.267l0.004,0.021l0.005,0.021c0.038,0.222,0.797,0.109,0.984-0.134l0.007-0.004  c2.208-2.732,5.82-2.428,8.966-2.792c2.021-0.233,4.051-0.587,5.985-1.222c4.405-1.444,6.639-6.494,9.865-9.446  c0.22-0.2,0.043-0.302-0.192-0.302c-5.819-0.023-12.049-0.503-17.617,1.562C64.359,35.915,62.841,41.29,61.593,46.267"></path><path xmlns="http://www.w3.org/2000/svg" d="M47.388,21.693c-0.955,4.124,1.494,10.174,4.587,12.904c0.129,0.115,0.324,0.122,0.501,0.065  c0.137-0.028,0.263-0.095,0.339-0.208c4.706-6.957,11.15-16.488,5.445-24.755c-0.212-0.309-0.711-0.16-0.919,0.066  C53.616,13.84,48.722,15.943,47.388,21.693"></path><path xmlns="http://www.w3.org/2000/svg" d="M34.734,51.221l0.117-0.059l0.035-0.021l0.096-0.082l0.002-0.003l0.034-0.059l0.014-0.058l0.008-0.023v-0.239  c0-0.102-0.156-0.135-0.347-0.121c-5.661-5.514-14.308-4.793-20.791-8.892c-0.179-0.113-1.148,0.005-1.01,0.333  c1.693,4.052,2.977,8.907,7.075,11.195c4.74,2.644,10.286-0.031,14.734-1.956L34.734,51.221z"></path><path xmlns="http://www.w3.org/2000/svg" d="M38.014,65.277c2.927-3.315,2.48-7.552,2.438-11.654c-0.002-0.156-0.257-0.186-0.514-0.13l-0.214,0.062  c-3.461,1.68-7.188,2.932-9.8,5.896c-2.876,3.259-1.969,8.294-2.962,12.235c-0.097,0.387,0.72,0.149,0.845,0.08  C31.349,69.799,35.268,68.384,38.014,65.277"></path><path xmlns="http://www.w3.org/2000/svg" d="M26.812,36.294l0.088,0l0.062-0.01c0.299-0.045,0.592-0.247,0.503-0.518c-1.025-3.133-1.885-7.154-4.471-9.445  c-2.563-2.271-6.516-2.166-9.677-1.604c-0.317,0.056-0.584,0.419-0.303,0.672c2.637,2.381,2.634,6.229,5.3,8.521  c2.213,1.901,5.74,1.89,8.448,2.382H26.812z"></path><path xmlns="http://www.w3.org/2000/svg" d="M82.325,65.637c-3.229-1.935-6.361-4.34-10.181-4.881c-3.393-0.482-6.024,0.671-9.221,1.685  c-0.145,0.047-0.219,0.106-0.249,0.171l0.004,0.23c1.987,3.205,5.032,6.789,8.965,7.415c4.424,0.703,6.754-2.553,10.577-4.065  C82.469,66.094,82.599,65.802,82.325,65.637"></path><path xmlns="http://www.w3.org/2000/svg" d="M66.488,53.189c-0.074,0.113-0.059,0.194,0.008,0.247c0.033,0.039,0.088,0.073,0.172,0.099  c5.892,1.838,10.949,0.225,15.351-3.984c0.233-0.224,0.013-0.424-0.235-0.45C76.113,48.517,70.03,47.784,66.488,53.189"></path><path xmlns="http://www.w3.org/2000/svg" d="M36.259,22.924c0.292,0.257,0.899-0.019,0.928-0.349c2.331-2.359,1.812-5.882,0.568-8.673  c-1.592-3.574-6.044-2.686-8.583-4.823c-0.317-0.269-0.988,0.019-0.922,0.455c0.487,3.17,0.644,6.359,2.29,9.193  C31.834,20.958,34.413,21.307,36.259,22.924"></path><path xmlns="http://www.w3.org/2000/svg" d="M61.094,26.182c2.436,0.011,5.171,0.302,7.552-0.338c3.041-0.816,5.266-4.345,7.855-6.025  c0.196-0.127,0.305-0.353,0.001-0.418c-2.825-0.601-6.36-1.79-9.183-0.468c-3.043,1.423-4.813,4.166-6.504,6.961l-0.013,0.16  C60.8,26.126,60.879,26.182,61.094,26.182"></path><path xmlns="http://www.w3.org/2000/svg" d="M27.572,44.208c2.506,1.403,5.173,1.063,7.126-1.006l0.062-0.123c-2.381-4.594-7.229-5.546-11.708-3.465  c-0.085,0.04-0.291,0.149-0.187,0.263C24.377,41.537,25.57,43.085,27.572,44.208"></path><path xmlns="http://www.w3.org/2000/svg" d="M46.889,66.067c-0.068-1.976-0.748-3.919-0.491-5.895l-0.01-0.149c-0.078-0.279-0.758-0.188-0.971,0.074  c-2.01,1.576-3.833,3.195-5.092,5.45c-1.865,3.337-2.668,7.343-3.627,10.999c-0.079,0.302,0.456,0.263,0.602,0.227  c3.27-0.812,6.073-2.246,7.991-5.1C46.345,70.106,46.953,67.941,46.889,66.067"></path><path xmlns="http://www.w3.org/2000/svg" d="M27.847,23.859l0.06-0.002c0.303,0.021,0.654-0.142,0.648-0.429c-0.086-3.579-1.304-6.376-4.179-8.562  c-4.183-3.182-8.807-4.563-12.107-8.953c-0.23-0.306-1.016-0.167-1.007,0.27c0.074,4.389,1.121,9.062,4.458,12.18  C18.974,21.405,23.5,23.147,27.847,23.859"></path><path xmlns="http://www.w3.org/2000/svg" d="M89.017,59.001c-1.857,0.337-2.729-1.299-3.842-2.437c-0.712-0.729-1.604-0.884-2.577-0.932  c-2.29-0.108-5.108,0.54-7.085,1.715c-0.087,0.054-0.148,0.112-0.194,0.173c-0.157,0.16-0.215,0.354-0.031,0.472  c1.164,0.736,2.037,1.799,3.06,2.705c1.291,1.139,2.91,1.672,4.576,1.951c2.824,0.474,4.101-1.602,6.189-2.954  C89.437,59.484,89.591,58.896,89.017,59.001"></path><path xmlns="http://www.w3.org/2000/svg" d="M63.553,71.891c-0.315-0.094-0.96,0.14-0.881,0.409c0.49,1.661,0.48,4.793,2.503,5.411c1.983,0.606,4.288-0.717,6.353-0.411  c0.178,0.026,1.072-0.14,0.81-0.47C70.257,74.188,66.967,72.078,63.553,71.891"></path><path xmlns="http://www.w3.org/2000/svg" d="M44.815,18.733l0.019,0.019l0.007,0.007c0.197,0.267,0.938,0.059,1.025-0.195c2.535-2.571,4.465-5.096,5.426-8.632  c0.951-3.483,0.211-7.266-2.224-9.94c-0.196-0.217-0.733-0.06-0.904,0.12c-2.537,2.633-4.152,5.468-5.178,8.963  c-0.409,1.391-0.82,2.631-0.572,4.069C42.75,15.095,43.937,16.988,44.815,18.733"></path><path xmlns="http://www.w3.org/2000/svg" d="M43.25,33.75c0,0,5.75-4.25,0.75-12c-1.25-2.5-5.5,1.25-4.75,6.25S43.25,33.75,43.25,33.75z"></path><path xmlns="http://www.w3.org/2000/svg" d="M37.833,32.917c0,0,0.333-6.834-4.5-7.667s-6.75-0.333-6.75-0.333S28.25,33.75,37.833,32.917z"></path><path xmlns="http://www.w3.org/2000/svg" d="M45.048,84.649C43.866,90.101,44.392,95,46.572,100h21.264c-3.964-7-7.68-15.628-8.312-23.473  c-0.597-7.392,0.046-16.431,5.229-22.1c0.067-0.072,0.059-0.171-0.052-0.19c-3.198-0.606-5.769-2.199-8.065-4.224  c1.29-6.444,2.861-12.762,4.916-19.035c0.136-0.414-0.87-0.178-1.011,0.052c-2.823,4.662-5.858,9.777-7.652,15.183  c-0.906-1.007-1.799-2.032-2.708-3.032c-4.5-4.953-10.533-7.23-16.861-8.456c-0.14-0.027-1.181,0.17-0.917,0.415  C41.504,43.555,50.56,52.41,49.13,66.104C48.472,72.403,46.385,78.491,45.048,84.649z"></path></g><g id="SvgjsG1734" featurekey="nameFeature-0" transform="matrix(1.129177989575228,0,0,1.129177989575228,56,198.37307977197275)" fill="#eef9dc"><path d="M0 33.6 l3.92 0 c0.2 2.2 0.68 2.8 1.44 2.8 c1.6 0 1.6 -1.68 1.6 -13.24 l0 -11.96 l-3.04 0 l0 -3.2 l7.04 0 l0 15.16 c0 12.8 0 17.24 -5.6 17.24 c-3.52 0 -4.88 -1.92 -5.36 -6.8 z M14.96 40 l0 -16.8 c0 -11.16 0 -15.56 6 -15.56 s6 4.4 6 15.56 l0 16.8 l-4 0 l0 -9.2 l-4 0 l0 9.2 l-4 0 z M18.96 27.6 l4 0 l0 -4.4 c0 -10.4 0 -12.36 -2 -12.36 s-2 1.96 -2 12.36 l0 4.4 z M30.96 40 l0 -32 l6.48 0 c4.12 0 5.52 2.52 5.52 7.36 c0 4.36 -0.52 6.84 -1.76 8.04 l0 0.24 c1.04 0.36 1.36 2.24 1.76 6.92 l0.8 9.44 l-4 0 l-0.52 -9.44 c-0.28 -4.76 -1 -5.76 -2.2 -5.76 l-2.08 0 l0 15.2 l-4 0 z M34.96 21.6 l2.48 0 c1.4 0 1.8 -1.4 1.8 -6.24 c0 -3.16 -0.6 -4.16 -1.8 -4.16 l-2.48 0 l0 10.4 z M46.96 40 l0 -32 l6 0 c6 0 6 4.4 6 15.16 c0 12.4 0 16.84 -6 16.84 l-6 0 z M50.96 36 l2 0 c2.24 0 2.24 -1.68 2.24 -12.84 c0 -10 0 -11.96 -2.24 -11.96 l-2 0 l0 24.8 z M62.56 40 l0 -32 l4 0 l0 32 l-4 0 z M70.56 40 l0 -32 l3.6 0 l5.24 19.6 l-0.04 -0.4 l0 -19.2 l4 0 l0 32 l-3.6 0 l-5.24 -17.6 l0.04 0.4 l0 17.2 l-4 0 z M87.36 40 l0 -32 l9.2 0 l0 3.2 l-5.2 0 l0 10.4 l4.4 0 l0 3.2 l-4.4 0 l0 11.2 l5.2 0 l0 4 l-9.2 0 z M99.36 40 l0 -32 l6.48 0 c4.12 0 5.52 2.52 5.52 7.36 c0 4.36 -0.52 6.84 -1.76 8.04 l0 0.24 c1.04 0.36 1.36 2.24 1.76 6.92 l0.8 9.44 l-4 0 l-0.52 -9.44 c-0.28 -4.76 -1 -5.76 -2.2 -5.76 l-2.08 0 l0 15.2 l-4 0 z M103.36 21.6 l2.48 0 c1.4 0 1.8 -1.4 1.8 -6.24 c0 -3.16 -0.6 -4.16 -1.8 -4.16 l-2.48 0 l0 10.4 z M115.36 40 l0 -32 l4 0 l0 32 l-4 0 z M123.36 40 l0 -16.8 c0 -11.16 0 -15.56 6 -15.56 s6 4.4 6 15.56 l0 16.8 l-4 0 l0 -9.2 l-4 0 l0 9.2 l-4 0 z M127.36 27.6 l4 0 l0 -4.4 c0 -10.4 0 -12.36 -2 -12.36 s-2 1.96 -2 12.36 l0 4.4 z M146.16000000000003 33.6 l3.92 0 c0.2 2.2 0.68 2.8 1.44 2.8 c1.6 0 1.6 -1.68 1.6 -13.24 l0 -11.96 l-3.04 0 l0 -3.2 l7.04 0 l0 15.16 c0 12.8 0 17.24 -5.6 17.24 c-3.52 0 -4.88 -1.92 -5.36 -6.8 z M161.12000000000003 40 l0 -32 l3.6 0 l4.2 20 l0.4 0 l4.2 -20 l3.6 0 l0 32 l-4 0 l0 -16 l-2.84 16 l-2.4 0 l-2.76 -16 l0 16 l-4 0 z"></path></g><g id="SvgjsG1735" featurekey="sloganFeature-0" transform="matrix(0.6083021275978594,0,0,0.6083021275978594,75.05104820814782,254.6080590564314)" fill="#95e1d3"><path d="M2.18 7.359999999999999 l6.04 0 c0.42 0 0.62 0.34 0.62 0.68 s-0.2 0.66 -0.62 0.66 l-2.28 0 l0 10.06 c0 0.42 -0.34 0.64 -0.68 0.64 s-0.66 -0.22 -0.66 -0.64 l0 -10.06 l-2.42 0 c-0.42 0 -0.62 -0.32 -0.62 -0.66 s0.2 -0.68 0.62 -0.68 z M12.98 15.86 l0 -7.86 c0 -0.42 0.34 -0.64 0.66 -0.64 c0.34 0 0.66 0.22 0.66 0.64 l0 7.86 c0 1.44 0.98 2.3 2.34 2.3 l0.5 0 c1.4 0 2.36 -0.98 2.36 -2.3 l0 -7.86 c0 -0.42 0.32 -0.64 0.66 -0.64 c0.32 0 0.66 0.22 0.66 0.64 l0 7.86 c0 2.06 -1.46 3.64 -3.68 3.64 l-0.5 0 c-2.22 0 -3.66 -1.54 -3.66 -3.64 z M33.36 16.94 c0.38 0.68 0.82 1.22 1.86 1.22 c1.4 0 1.88 -1.32 1.88 -2.66 l0 -7.5 c0 -0.44 0.32 -0.64 0.64 -0.64 c0.34 0 0.7 0.22 0.7 0.64 l0 7.5 c0 2.46 -1.18 4 -3.22 4 c-1.68 0 -2.44 -0.92 -2.98 -1.88 c-0.48 -0.84 0.7 -1.42 1.12 -0.68 z M49.199999999999996 18.86 l-0.78 -2.54 l-3.72 0 l-0.74 2.5 c-0.26 0.86 -1.58 0.6 -1.3 -0.28 c1.04 -3.5 2.06 -7.06 3.08 -10.6 c0.12 -0.38 0.44 -0.58 0.76 -0.58 c0.3 0 0.62 0.2 0.74 0.58 l3.18 10.6 c0.22 0.76 -0.96 1.18 -1.22 0.32 z M46.54 10.06 l-1.44 4.92 l2.94 0 c-0.5 -1.68 -0.96 -3.12 -1.5 -4.92 z M56.199999999999996 15.9 l0 2.86 c0 0.44 -0.34 0.64 -0.66 0.64 c-0.34 0 -0.66 -0.2 -0.66 -0.64 l0 -10.74 c0 -0.4 0.22 -0.66 0.66 -0.66 l2.7 0 c0.76 0 3.16 0.22 3.16 2.92 l0 2.5 c0 1.52 -0.56 2.48 -1.84 2.9 l1.36 2.74 c0.28 0.54 -0.14 0.98 -0.58 0.98 c-0.24 0 -0.54 -0.16 -0.7 -0.5 l-1.46 -3 l-1.98 0 z M60.07999999999999 12.780000000000001 l0 -2.5 c0 -0.48 -0.18 -1.58 -1.84 -1.58 l-2.04 0 l0 5.86 l1.86 0 c0.98 0 2.02 -0.22 2.02 -1.78 z M66.27999999999999 18.78 l0 -10.76 c0 -0.54 0.38 -0.66 0.66 -0.66 l3.2 0 c2.64 0 3.94 1.26 3.94 3.74 l0 5.12 c0 1.56 -1.22 3.2 -3.88 3.2 l-3.26 0 c-0.28 0 -0.66 -0.16 -0.66 -0.64 z M72.75999999999999 16.22 l0 -5.12 c0 -1.64 -0.88 -2.4 -2.62 -2.4 l-2.54 0 l0 9.42 l2.6 0 c1.22 0 2.56 -0.66 2.56 -1.9 z M78.88 18.78 l0 -10.78 c0 -0.42 0.32 -0.64 0.64 -0.64 s0.66 0.22 0.66 0.64 l0 10.78 c0 0.86 -1.3 0.86 -1.3 0 z M91.95999999999998 8 l0 10.76 c0 0.42 -0.32 0.64 -0.64 0.64 c-0.24 0 -0.56 -0.18 -0.7 -0.44 c-1.5 -2.94 -2.62 -5.2 -4.12 -8.16 l0 7.96 c0 0.42 -0.32 0.64 -0.66 0.64 c-0.32 0 -0.66 -0.22 -0.66 -0.64 l0 -10.76 c0 -0.7 1 -0.74 1.22 -0.32 l4.22 8.34 l0 -8.02 c0 -0.42 0.32 -0.64 0.66 -0.64 s0.68 0.22 0.68 0.64 z M97.01999999999998 18.7 l0 -10.64 c0 -0.46 0.36 -0.7 0.7 -0.7 l4.6 0 c0.44 0 0.66 0.32 0.66 0.66 s-0.22 0.68 -0.66 0.68 l-3.96 0 l0 3.88 l3.14 0 c0.46 0 0.68 0.32 0.68 0.66 s-0.24 0.7 -0.68 0.7 l-3.14 0 l0 4.14 l3.96 0 c0.42 0 0.64 0.34 0.64 0.66 c0 0.34 -0.22 0.66 -0.64 0.66 l-4.6 0 c-0.34 0 -0.7 -0.12 -0.7 -0.7 z M108.91999999999997 15.9 l0 2.86 c0 0.44 -0.34 0.64 -0.66 0.64 c-0.34 0 -0.66 -0.2 -0.66 -0.64 l0 -10.74 c0 -0.4 0.22 -0.66 0.66 -0.66 l2.7 0 c0.76 0 3.16 0.22 3.16 2.92 l0 2.5 c0 1.52 -0.56 2.48 -1.84 2.9 l1.36 2.74 c0.28 0.54 -0.14 0.98 -0.58 0.98 c-0.24 0 -0.54 -0.16 -0.7 -0.5 l-1.46 -3 l-1.98 0 z M112.79999999999998 12.780000000000001 l0 -2.5 c0 -0.48 -0.18 -1.58 -1.84 -1.58 l-2.04 0 l0 5.86 l1.86 0 c0.98 0 2.02 -0.22 2.02 -1.78 z M118.77999999999999 15.86 l0 -4.96 c0 -2.4 1.24 -3.68 3.64 -3.68 l0.52 0 c2.38 0 3.64 1.28 3.64 3.68 l0 4.96 c0 2.2 -1.46 3.64 -3.64 3.64 l-0.52 0 c-2.22 0 -3.64 -1.46 -3.64 -3.64 z M122.41999999999999 18.16 l0.52 0 c1.44 0 2.3 -0.9 2.3 -2.3 l0 -4.96 c0 -1.56 -0.76 -2.36 -2.3 -2.36 l-0.52 0 c-1.52 0 -2.36 0.82 -2.36 2.36 l0 4.96 c0 1.46 0.92 2.3 2.36 2.3 z M138.87999999999997 18.78 l0 -10.76 c0 -0.54 0.38 -0.66 0.66 -0.66 l3.2 0 c2.64 0 3.94 1.26 3.94 3.74 l0 5.12 c0 1.56 -1.22 3.2 -3.88 3.2 l-3.26 0 c-0.28 0 -0.66 -0.16 -0.66 -0.64 z M145.35999999999996 16.22 l0 -5.12 c0 -1.64 -0.88 -2.4 -2.62 -2.4 l-2.54 0 l0 9.42 l2.6 0 c1.22 0 2.56 -0.66 2.56 -1.9 z M151.43999999999997 18.7 l0 -10.64 c0 -0.46 0.36 -0.7 0.7 -0.7 l4.6 0 c0.44 0 0.66 0.32 0.66 0.66 s-0.22 0.68 -0.66 0.68 l-3.96 0 l0 3.88 l3.14 0 c0.46 0 0.68 0.32 0.68 0.66 s-0.24 0.7 -0.68 0.7 l-3.14 0 l0 4.14 l3.96 0 c0.42 0 0.64 0.34 0.64 0.66 c0 0.34 -0.22 0.66 -0.64 0.66 l-4.6 0 c-0.34 0 -0.7 -0.12 -0.7 -0.7 z M173.11999999999998 7.32 c1.82 0 3.76 0.7 3.76 2.76 c0 0.48 -0.32 0.7 -0.66 0.7 s-0.7 -0.24 -0.7 -0.7 c0 -0.16 -0.1 -1.46 -2.4 -1.46 c-1.82 0 -2.62 0.72 -2.62 2.44 l0 4.82 c0 1.74 0.98 2.28 2.62 2.28 c1.66 0 2.58 -0.68 2.58 -2.3 c0 -0.46 0.34 -0.68 0.66 -0.68 c0.34 0 0.66 0.22 0.66 0.68 c0 2.7 -1.5 3.6 -3.9 3.6 c-2.6 0 -3.92 -0.96 -3.92 -3.58 l0 -4.82 c0 -2.84 1.42 -3.74 3.92 -3.74 z M181.55999999999997 15.86 l0 -4.96 c0 -2.4 1.24 -3.68 3.64 -3.68 l0.52 0 c2.38 0 3.64 1.28 3.64 3.68 l0 4.96 c0 2.2 -1.46 3.64 -3.64 3.64 l-0.52 0 c-2.22 0 -3.64 -1.46 -3.64 -3.64 z M185.19999999999996 18.16 l0.52 0 c1.44 0 2.3 -0.9 2.3 -2.3 l0 -4.96 c0 -1.56 -0.76 -2.36 -2.3 -2.36 l-0.52 0 c-1.52 0 -2.36 0.82 -2.36 2.36 l0 4.96 c0 1.46 0.92 2.3 2.36 2.3 z M200.93999999999997 8 l0 10.76 c0 0.42 -0.32 0.64 -0.64 0.64 c-0.24 0 -0.56 -0.18 -0.7 -0.44 c-1.5 -2.94 -2.62 -5.2 -4.12 -8.16 l0 7.96 c0 0.42 -0.32 0.64 -0.66 0.64 c-0.32 0 -0.66 -0.22 -0.66 -0.64 l0 -10.76 c0 -0.7 1 -0.74 1.22 -0.32 l4.22 8.34 l0 -8.02 c0 -0.42 0.32 -0.64 0.66 -0.64 s0.68 0.22 0.68 0.64 z M206.03999999999996 18.76 l0 -10.76 c0 -0.48 0.38 -0.64 0.66 -0.64 l4.6 0 c0.44 0 0.66 0.32 0.66 0.66 s-0.22 0.68 -0.66 0.68 l-3.94 0 l0 3.88 l3.14 0 c0.44 0 0.68 0.34 0.68 0.68 s-0.24 0.68 -0.68 0.68 l-3.14 0 l0 4.82 c0 0.42 -0.34 0.64 -0.66 0.64 c-0.34 0 -0.66 -0.22 -0.66 -0.64 z M215.97999999999996 18.78 l0 -10.78 c0 -0.42 0.32 -0.64 0.64 -0.64 s0.66 0.22 0.66 0.64 l0 10.78 c0 0.86 -1.3 0.86 -1.3 0 z M228.14 18.86 l-0.78 -2.54 l-3.72 0 l-0.74 2.5 c-0.26 0.86 -1.58 0.6 -1.3 -0.28 c1.04 -3.5 2.06 -7.06 3.08 -10.6 c0.12 -0.38 0.44 -0.58 0.76 -0.58 c0.3 0 0.62 0.2 0.74 0.58 l3.18 10.6 c0.22 0.76 -0.96 1.18 -1.22 0.32 z M225.48 10.06 l-1.44 4.92 l2.94 0 c-0.5 -1.68 -0.96 -3.12 -1.5 -4.92 z M240.57999999999998 8 l0 10.76 c0 0.42 -0.32 0.64 -0.64 0.64 c-0.24 0 -0.56 -0.18 -0.7 -0.44 c-1.5 -2.94 -2.62 -5.2 -4.12 -8.16 l0 7.96 c0 0.42 -0.32 0.64 -0.66 0.64 c-0.32 0 -0.66 -0.22 -0.66 -0.64 l0 -10.76 c0 -0.7 1 -0.74 1.22 -0.32 l4.22 8.34 l0 -8.02 c0 -0.42 0.32 -0.64 0.66 -0.64 s0.68 0.22 0.68 0.64 z M246.27999999999997 7.359999999999999 l5.32 0 c0.66 0 1.18 0.78 0.68 1.64 l-2.4 4.12 c-1.04 1.78 -1.84 3.22 -2.82 4.94 l4.72 0 c0.44 0 0.66 0.34 0.66 0.68 s-0.22 0.66 -0.66 0.66 l-5.46 0 c-0.78 0 -1.06 -0.82 -0.78 -1.32 l5.42 -9.38 l-4.68 0 c-0.44 0 -0.66 -0.34 -0.66 -0.68 c0 -0.32 0.18 -0.66 0.66 -0.66 z M263.34 18.86 l-0.78 -2.54 l-3.72 0 l-0.74 2.5 c-0.26 0.86 -1.58 0.6 -1.3 -0.28 c1.04 -3.5 2.06 -7.06 3.08 -10.6 c0.12 -0.38 0.44 -0.58 0.76 -0.58 c0.3 0 0.62 0.2 0.74 0.58 l3.18 10.6 c0.22 0.76 -0.96 1.18 -1.22 0.32 z M260.68 10.06 l-1.44 4.92 l2.94 0 c-0.5 -1.68 -0.96 -3.12 -1.5 -4.92 z"></path></g></svg>